# xmcd CD database file
#
# Track frame offsets:
#	150
#	22806
#	35174
#	61997
#	79269
#	91376
#	109545
#	125319
#	132682
#	139989
#	146879
#	156696
#	164257
#	173361
#	182863
#	197312
#
# Disc length: 4410 seconds
#
# Revision: 3
# Processed by: cddbd v1.5.2PL0 Copyright (c) Steve Scherf et al.
# Submitted via: CDex 1.51
#
DISCID=e1113810
DTITLE=Dokaka - The Dokaka Discography (Disk 4)
DYEAR=2010
DGENRE=New Age
TTITLE0=Economy Parcel Post
TTITLE1=Evil Matter
TTITLE2=Redshift
TTITLE3=Thundersteel
TTITLE4=Everybody's Fool
TTITLE5=Humming Delivery Man
TTITLE6=Hoochie Coochie Dokaka
TTITLE7=The Boss Theme Of Romancing Saga 2
TTITLE8=Sea of Okhotsk
TTITLE9=Snakeman
TTITLE10=Dragon Warrior Sessions
TTITLE11=Tohno-San
TTITLE12=Reborn To A Girl
TTITLE13=Kusakabe-San
TTITLE14=National Anthem Of Japan
TTITLE15=Bjork Rehearsal
EXTD=YEAR: 2010
EXTT0=
EXTT1=
EXTT2=
EXTT3=
EXTT4=
EXTT5=
EXTT6=
EXTT7=
EXTT8=
EXTT9=
EXTT10=
EXTT11=
EXTT12=
EXTT13=
EXTT14=
EXTT15=
PLAYORDER=
